<?xml version="1.0" standalone="no"?>
<!DOCTYPE svg PUBLIC "-//W3C//DTD SVG 20010904//EN"
 "http://www.w3.org/TR/2001/REC-SVG-20010904/DTD/svg10.dtd">
<svg version="1.0" xmlns="http://www.w3.org/2000/svg"
 width="512.000000pt" height="512.000000pt" viewBox="0 0 512.000000 512.000000"
 preserveAspectRatio="xMidYMid meet">

<g transform="translate(0.000000,512.000000) scale(0.100000,-0.100000)"
fill="#000000" stroke="none">
<path d="M860 4654 c-302 -55 -290 -32 -222 -418 68 -383 66 -381 254 -347 62
11 113 19 114 18 1 -1 5 -21 9 -43 6 -40 3 -47 -82 -170 -98 -144 -132 -226
-133 -316 0 -32 34 -248 75 -481 41 -233 75 -427 75 -431 0 -3 -64 -6 -142 -6
-167 0 -196 -11 -228 -83 -19 -40 -20 -75 -20 -872 0 -456 3 -847 6 -868 11
-61 63 -138 118 -172 l49 -30 626 -3 c563 -2 630 -1 670 14 60 23 110 70 137
129 23 48 24 59 24 312 0 225 -2 264 -16 277 -20 20 -48 20 -68 0 -12 -12 -16
-36 -16 -100 l0 -84 -710 0 -710 0 0 400 0 400 234 0 c205 0 235 2 247 17 10
11 15 55 17 150 3 110 1 138 -12 159 l-16 24 -235 0 -235 0 0 103 c0 67 4 107
12 115 9 9 177 12 694 12 607 0 684 -2 698 -16 14 -14 16 -68 16 -444 0 -376
2 -430 16 -444 20 -20 48 -20 68 0 14 14 16 69 16 455 0 476 1 467 -55 519
-25 24 -34 25 -173 30 -125 4 -147 7 -146 21 3 45 158 597 172 613 10 10 71
50 136 89 143 84 193 128 235 206 45 85 214 719 208 780 -5 46 -27 83 -68 113
-28 20 -418 128 -465 128 -44 0 -80 -32 -98 -88 -46 -144 -146 -544 -141 -565
12 -47 55 -74 163 -103 109 -29 112 -31 88 -87 -11 -27 -39 -48 -146 -111
-142 -83 -199 -134 -242 -212 -15 -29 -64 -189 -118 -394 -51 -190 -96 -355
-101 -368 -8 -21 -14 -23 -66 -20 l-58 3 -77 435 c-43 239 -77 451 -78 471 0
29 15 57 77 145 131 187 155 266 128 427 -60 371 -115 653 -133 676 -58 78
-107 83 -372 35z m270 -82 c20 -16 30 -56 81 -348 32 -181 59 -353 59 -381 0
-74 -27 -136 -108 -252 -80 -113 -97 -142 -106 -187 -5 -20 9 -124 39 -289 25
-142 44 -259 43 -260 -6 -5 -140 -26 -144 -23 -2 2 -24 125 -50 273 l-47 270
16 64 c17 61 29 83 157 268 32 46 44 74 47 110 3 32 -16 164 -57 396 -34 192
-59 351 -56 354 5 5 62 19 92 22 7 0 22 -7 34 -17z m-187 -291 c26 -146 44
-267 42 -270 -3 -2 -48 -12 -101 -22 -69 -12 -97 -13 -99 -5 -10 30 -94 530
-90 534 8 8 190 38 196 33 3 -3 27 -125 52 -270z m1196 5 c47 -12 87 -28 89
-34 2 -8 -110 -448 -133 -518 -4 -14 -201 37 -199 52 8 55 140 524 148 524 6
0 49 -11 95 -24z m260 -72 c86 -25 86 -16 -14 -391 -48 -180 -97 -347 -107
-370 -32 -68 -86 -114 -221 -192 -76 -44 -137 -86 -152 -105 -17 -22 -41 -93
-76 -222 -28 -104 -68 -250 -89 -324 l-37 -135 -77 -3 c-45 -2 -76 1 -76 7 0
12 133 516 162 616 41 140 76 180 243 275 119 68 168 108 184 149 10 25 191
693 191 705 0 9 12 7 69 -10z"/>
<path d="M3135 4083 c-23 -6 -53 -30 -66 -56 -6 -9 -21 -104 -34 -210 -14
-105 -28 -193 -32 -195 -29 -10 -59 -31 -75 -52 -16 -23 -20 -65 -33 -425 -8
-220 -15 -428 -15 -462 l0 -63 -244 0 c-233 0 -244 -1 -270 -21 -15 -12 -31
-32 -36 -44 -6 -15 18 -334 66 -887 65 -759 77 -866 93 -889 16 -22 20 -48 23
-158 l3 -133 33 -29 32 -29 860 0 860 0 32 29 33 29 3 133 c3 110 7 136 23
158 16 23 28 131 93 890 47 544 71 872 66 886 -5 12 -21 32 -36 44 -26 20 -37
21 -274 21 -186 0 -250 -3 -257 -12 -21 -28 -22 -49 -3 -68 19 -19 34 -20 248
-20 l227 0 -11 -142 c-7 -79 -24 -276 -38 -438 -14 -162 -39 -459 -56 -660
-16 -201 -33 -384 -36 -407 l-5 -43 -269 0 -268 0 -6 93 c-3 50 -10 243 -16
427 -17 590 -21 688 -35 1060 -8 201 -19 534 -26 740 -13 421 -15 432 -77 457
l-39 15 -23 186 c-12 103 -28 202 -36 220 -21 52 -60 62 -221 61 -76 -1 -147
-4 -158 -6z m307 -213 c9 -63 19 -145 23 -182 l7 -68 -182 0 -182 0 5 33 c3
17 13 91 22 162 9 72 18 140 21 153 4 22 6 23 137 20 l132 -3 17 -115z m132
-372 c3 -7 7 -106 10 -221 l6 -207 -297 2 -296 3 2 105 c0 58 4 156 7 218 l7
112 279 0 c214 0 280 -3 282 -12z m30 -910 c23 -668 56 -1628 56 -1655 l0 -33
-201 0 -201 0 6 58 c4 31 36 397 71 813 50 585 62 764 54 787 -20 59 -45 67
-236 70 l-173 4 0 43 c0 23 3 57 6 74 l7 31 302 0 302 0 7 -192z m-315 -110
c0 -24 -6 -101 -12 -173 l-12 -130 -399 -3 c-220 -1 -403 1 -407 5 -4 5 -12
71 -19 148 -6 77 -13 152 -15 168 l-4 27 434 0 435 0 -1 -42z m-76 -865 c2 -5
-11 -174 -29 -378 -18 -203 -33 -378 -33 -387 -1 -17 -22 -18 -290 -18 l-290
0 -5 43 c-4 23 -17 177 -31 342 -14 165 -28 324 -31 353 l-6 52 355 0 c196 0
358 -3 360 -7z m331 -875 c21 -30 20 -44 -4 -68 -18 -18 -33 -20 -175 -20
l-155 0 0 55 0 55 159 0 c154 0 160 -1 175 -22z m716 -31 c0 -13 3 -58 6 -100
l7 -77 -247 0 -246 0 0 100 0 100 240 0 240 0 0 -23z"/>
<path d="M2507 3222 c-13 -14 -17 -38 -17 -96 0 -114 2 -116 113 -116 98 0
117 7 117 45 0 26 -18 45 -44 45 -17 0 -16 4 12 33 33 34 41 74 20 95 -19 19
-45 14 -80 -17 l-34 -29 -16 29 c-19 33 -47 37 -71 11z"/>
<path d="M4052 3228 c-27 -27 -7 -78 31 -78 16 0 15 -5 -12 -35 -34 -40 -39
-66 -15 -89 23 -24 47 -19 79 14 34 35 45 38 45 10 0 -28 40 -46 69 -31 19 11
21 20 21 104 0 59 -4 97 -12 105 -16 16 -190 16 -206 0z"/>
<path d="M4459 3069 c-15 -29 3 -69 31 -69 27 0 25 -9 -11 -46 -38 -39 -35
-80 7 -90 20 -5 32 0 58 25 39 37 42 38 50 6 7 -29 49 -44 71 -25 19 16 22
189 3 208 -8 8 -46 12 -105 12 -84 0 -93 -2 -104 -21z"/>
</g>
</svg>
