<?xml version="1.0" standalone="no"?>
<!DOCTYPE svg PUBLIC "-//W3C//DTD SVG 20010904//EN"
 "http://www.w3.org/TR/2001/REC-SVG-20010904/DTD/svg10.dtd">
<svg version="1.0" xmlns="http://www.w3.org/2000/svg"
 width="512.000000pt" height="512.000000pt" viewBox="0 0 512.000000 512.000000"
 preserveAspectRatio="xMidYMid meet">

<g transform="translate(0.000000,512.000000) scale(0.100000,-0.100000)"
fill="#000000" stroke="none">
<path d="M880 4947 c-49 -16 -133 -102 -148 -153 -7 -23 -12 -84 -12 -136 l0
-96 -127 -4 c-118 -3 -133 -6 -195 -35 -93 -43 -151 -100 -196 -191 l-37 -76
0 -1696 0 -1696 38 -76 c44 -91 102 -146 197 -192 l65 -31 1392 -3 1392 -2 35
-53 c201 -302 573 -468 931 -416 139 20 295 81 414 162 59 40 198 179 238 238
108 159 172 361 173 547 1 349 -209 694 -517 851 l-43 21 -2 1173 -3 1172 -32
67 c-44 93 -100 151 -191 195 -72 36 -79 37 -203 41 l-129 4 0 96 c0 126 -13
166 -75 227 -101 102 -229 102 -330 0 -62 -61 -75 -101 -75 -229 l0 -96 -200
0 -200 0 0 96 c0 53 -5 115 -12 138 -16 55 -99 138 -154 154 -94 28 -169 8
-239 -63 -62 -61 -75 -101 -75 -229 l0 -96 -240 0 -240 0 0 96 c0 128 -13 168
-75 229 -101 102 -229 102 -330 0 -62 -61 -75 -101 -75 -229 l0 -96 -200 0
-200 0 0 96 c0 128 -13 168 -75 229 -70 71 -152 91 -245 62z m113 -158 c14 -6
30 -22 36 -36 15 -33 15 -513 0 -547 -26 -55 -112 -55 -138 0 -15 34 -15 514
0 548 18 40 60 54 102 35z m880 0 c14 -6 30 -22 36 -36 15 -33 15 -513 0 -547
-26 -55 -112 -55 -138 0 -15 34 -15 514 0 548 18 40 60 54 102 35z m960 0 c14
-6 30 -22 36 -36 15 -33 15 -513 0 -547 -26 -55 -112 -55 -138 0 -15 34 -15
514 0 548 18 40 60 54 102 35z m880 0 c14 -6 30 -22 36 -36 15 -33 15 -513 0
-547 -26 -55 -112 -55 -138 0 -15 34 -15 514 0 548 18 40 60 54 102 35z m607
-2005 c0 -696 -2 -815 -14 -811 -43 17 -191 29 -283 24 l-103 -6 0 220 0 220
-25 24 -24 25 -271 0 -271 0 -24 -25 -25 -24 0 -271 0 -271 25 -24 c23 -23 31
-25 132 -25 l108 -1 -30 -21 c-68 -48 -212 -206 -259 -286 -54 -91 -110 -242
-125 -342 -21 -131 -8 -304 35 -448 l6 -22 -1338 2 c-1284 3 -1340 4 -1374 22
-49 26 -88 64 -113 111 l-22 40 -3 1353 -2 1352 2000 0 2000 0 0 -816z m-560
-624 l0 -160 -160 0 -160 0 0 160 0 160 160 0 160 0 0 -160z m455 -335 c174
-31 300 -98 432 -230 79 -80 98 -105 142 -196 66 -136 84 -214 84 -359 0 -133
-17 -217 -67 -325 -86 -185 -216 -316 -402 -401 -107 -50 -191 -67 -324 -67
-146 0 -224 18 -360 85 -92 46 -117 63 -200 147 -79 79 -105 113 -143 188 -69
135 -90 220 -90 373 0 153 21 238 90 373 38 75 64 109 143 187 78 79 111 104
185 142 104 53 140 65 239 83 97 18 167 18 271 0z"/>
<path d="M665 3335 l-25 -24 0 -271 0 -271 25 -24 24 -25 271 0 271 0 24 25
25 24 0 271 0 271 -25 24 -24 25 -271 0 -271 0 -24 -25z m455 -295 l0 -160
-160 0 -160 0 0 160 0 160 160 0 160 0 0 -160z"/>
<path d="M1545 3335 l-25 -24 0 -271 0 -271 25 -24 24 -25 271 0 271 0 24 25
25 24 0 271 0 271 -25 24 -24 25 -271 0 -271 0 -24 -25z m455 -295 l0 -160
-160 0 -160 0 0 160 0 160 160 0 160 0 0 -160z"/>
<path d="M2425 3335 l-25 -24 0 -271 0 -271 25 -24 24 -25 271 0 271 0 24 25
25 24 0 271 0 271 -25 24 -24 25 -271 0 -271 0 -24 -25z m455 -295 l0 -160
-160 0 -160 0 0 160 0 160 160 0 160 0 0 -160z"/>
<path d="M3305 3335 l-25 -24 0 -271 0 -271 25 -24 24 -25 271 0 271 0 24 25
25 24 0 271 0 271 -25 24 -24 25 -271 0 -271 0 -24 -25z m455 -295 l0 -160
-160 0 -160 0 0 160 0 160 160 0 160 0 0 -160z"/>
<path d="M665 2455 l-25 -24 0 -271 0 -271 25 -24 24 -25 271 0 271 0 24 25
25 24 0 271 0 271 -25 24 -24 25 -271 0 -271 0 -24 -25z m455 -295 l0 -160
-160 0 -160 0 0 160 0 160 160 0 160 0 0 -160z"/>
<path d="M1545 2455 l-25 -24 0 -271 0 -271 25 -24 24 -25 271 0 271 0 24 25
25 24 0 271 0 271 -25 24 -24 25 -271 0 -271 0 -24 -25z m455 -295 l0 -160
-160 0 -160 0 0 160 0 160 160 0 160 0 0 -160z"/>
<path d="M2425 2455 l-25 -24 0 -271 0 -271 25 -24 24 -25 271 0 271 0 24 25
25 24 0 271 0 271 -25 24 -24 25 -271 0 -271 0 -24 -25z m455 -295 l0 -160
-160 0 -160 0 0 160 0 160 160 0 160 0 0 -160z"/>
<path d="M665 1575 l-25 -24 0 -271 0 -271 25 -24 24 -25 271 0 271 0 24 25
25 24 0 271 0 271 -25 24 -24 25 -271 0 -271 0 -24 -25z m455 -295 l0 -160
-160 0 -160 0 0 160 0 160 160 0 160 0 0 -160z"/>
<path d="M1545 1575 l-25 -24 0 -271 0 -271 25 -24 24 -25 271 0 271 0 24 25
25 24 0 271 0 271 -25 24 -24 25 -271 0 -271 0 -24 -25z m455 -295 l0 -160
-160 0 -160 0 0 160 0 160 160 0 160 0 0 -160z"/>
<path d="M2425 1575 l-25 -24 0 -271 0 -271 25 -24 24 -25 271 0 271 0 24 25
25 24 0 271 0 271 -25 24 -24 25 -271 0 -271 0 -24 -25z m455 -295 l0 -160
-160 0 -160 0 0 160 0 160 160 0 160 0 0 -160z"/>
<path d="M4000 1432 l0 -249 -26 -24 c-35 -33 -54 -71 -54 -111 0 -30 -11 -41
-126 -133 -69 -55 -135 -107 -146 -116 -21 -16 -21 -17 27 -75 26 -33 50 -60
54 -61 3 -2 70 48 148 110 l142 114 53 -5 c44 -3 59 0 88 20 97 66 108 180 26
257 l-26 24 0 249 0 248 -80 0 -80 0 0 -248z"/>
</g>
</svg>
