<?xml version="1.0" standalone="no"?>
<!DOCTYPE svg PUBLIC "-//W3C//DTD SVG 20010904//EN"
 "http://www.w3.org/TR/2001/REC-SVG-20010904/DTD/svg10.dtd">
<svg version="1.0" xmlns="http://www.w3.org/2000/svg"
 width="512.000000pt" height="512.000000pt" viewBox="0 0 512.000000 512.000000"
 preserveAspectRatio="xMidYMid meet">

<g transform="translate(0.000000,512.000000) scale(0.100000,-0.100000)"
fill="#000000" stroke="none">
<path d="M2433 2946 c-146 -36 -298 -156 -361 -286 -34 -69 -62 -179 -62 -245
0 -64 27 -173 60 -243 l30 -65 23 21 c80 75 208 65 284 -21 50 -57 63 -121 39
-189 -12 -34 -12 -37 8 -42 41 -11 192 -6 246 9 200 53 352 214 395 420 16 75
20 149 8 143 -89 -45 -112 -52 -173 -52 -247 2 -361 306 -178 476 38 35 39 37
20 47 -70 37 -240 51 -339 27z"/>
</g>
</svg>
